<?xml version="1.0" standalone="no"?>
<!DOCTYPE svg PUBLIC "-//W3C//DTD SVG 20010904//EN"
 "http://www.w3.org/TR/2001/REC-SVG-20010904/DTD/svg10.dtd">
<svg version="1.0" xmlns="http://www.w3.org/2000/svg"
 width="440.000000pt" height="440.000000pt" viewBox="0 0 440.000000 440.000000"
 preserveAspectRatio="xMidYMid meet">

<g transform="translate(0.000000,440.000000) scale(0.100000,-0.100000)"
fill="#000000" stroke="none">
<path d="M1467 3975 c-63 -23 -98 -55 -126 -114 l-26 -56 -3 -498 c-2 -425 -1
-507 13 -560 22 -87 58 -136 127 -171 51 -25 70 -29 180 -33 l123 -5 146 139
146 138 -213 3 c-163 2 -214 6 -223 16 -8 9 -10 140 -9 452 l3 439 218 3 c120
1 217 6 215 11 -2 4 -64 62 -138 129 l-135 122 -130 -1 c-85 0 -143 -5 -168
-14z"/>
<path d="M2070 3976 c8 -8 74 -66 145 -130 l130 -116 221 0 c158 0 223 -3 232
-12 9 -9 12 -120 12 -439 0 -375 -2 -429 -16 -443 -13 -14 -49 -16 -233 -16
l-218 0 -139 -131 c-77 -72 -141 -135 -143 -141 -2 -6 144 -8 410 -6 412 3
414 3 467 27 30 13 68 42 88 65 64 75 65 83 62 667 -3 521 -3 524 -25 566 -27
49 -73 87 -132 108 -63 22 -883 23 -861 1z"/>
<path d="M500 1823 c0 -5 29 -35 64 -66 l65 -57 103 0 c57 0 109 -4 116 -8 9
-7 12 -58 10 -223 l-3 -214 -110 -3 -110 -3 -70 -64 -70 -64 207 -1 c310 0
292 -21 296 340 4 378 16 363 -295 368 -116 2 -203 0 -203 -5z"/>
<path d="M1110 1475 l0 -355 230 0 230 0 0 65 0 65 -160 0 -160 0 0 85 0 85
130 0 130 0 0 60 0 60 -130 0 -130 0 0 80 0 80 160 0 160 0 0 65 0 65 -230 0
-230 0 0 -355z"/>
<path d="M1650 1824 c0 -5 170 -571 201 -671 l11 -33 84 0 c46 0 84 2 84 5 0
2 45 154 100 337 56 183 103 341 106 351 5 15 -3 17 -70 17 -62 0 -75 -3 -80
-17 -3 -10 -32 -126 -66 -258 -69 -272 -69 -270 -76 -262 -3 3 -36 124 -73
268 l-68 264 -76 3 c-43 2 -77 0 -77 -4z"/>
<path d="M2410 1824 c0 -4 28 -32 62 -63 l62 -56 115 -5 116 -5 3 -222 2 -223
-112 0 -113 -1 -70 -64 -70 -64 208 -1 c311 0 297 -17 297 352 0 365 11 351
-297 356 -112 2 -203 0 -203 -4z"/>
<path d="M3197 1823 c-3 -4 -53 -157 -111 -340 -59 -183 -109 -339 -112 -348
-5 -13 6 -15 70 -15 l75 0 11 43 c6 23 16 59 22 80 l11 38 116 -3 115 -3 20
-77 20 -78 78 0 c43 0 78 1 78 3 0 1 -51 160 -113 352 l-112 350 -82 3 c-45 1
-83 -1 -86 -5z m122 -283 c17 -63 31 -118 31 -122 0 -5 -34 -8 -76 -8 -57 0
-75 3 -71 13 2 6 19 65 37 130 18 65 36 115 40 110 4 -4 21 -60 39 -123z"/>
<path d="M3535 1810 c4 -12 53 -116 111 -233 l104 -212 0 -122 0 -123 70 0 70
0 0 119 0 118 110 228 c61 125 110 231 110 236 0 6 -31 9 -72 7 l-72 -3 -70
-152 c-38 -84 -72 -153 -75 -153 -3 0 -37 70 -75 155 l-69 155 -74 0 c-70 0
-74 -1 -68 -20z"/>
<path d="M420 1470 l0 -351 70 63 70 63 0 226 0 227 -70 62 -70 62 0 -352z"/>
<path d="M2330 1471 l0 -353 70 63 70 62 0 226 0 227 -42 40 c-24 22 -55 50
-70 63 l-28 24 0 -352z"/>
<path d="M455 815 c-21 -20 -25 -34 -25 -84 0 -88 18 -104 149 -135 56 -14
109 -30 117 -37 18 -14 19 -120 2 -137 -8 -8 -47 -12 -110 -12 -108 0 -118 6
-118 69 0 24 -4 31 -20 31 -16 0 -20 -7 -20 -34 0 -90 38 -111 187 -104 122 5
133 15 133 123 0 67 -2 75 -25 94 -14 11 -70 29 -123 41 -66 15 -103 28 -114
42 -22 25 -23 86 -2 116 13 20 24 22 95 22 102 0 119 -9 119 -60 0 -37 2 -40
26 -40 26 0 27 1 20 48 -9 73 -27 82 -158 82 -102 0 -110 -1 -133 -25z"/>
<path d="M1022 613 c-45 -126 -82 -231 -82 -235 0 -5 9 -8 19 -8 15 0 24 15
40 62 32 93 25 89 136 86 l99 -3 25 -72 c22 -61 30 -73 49 -73 12 0 22 1 22 3
0 2 -38 106 -84 233 -81 222 -85 229 -112 232 -29 2 -29 2 -112 -225z m163 40
c18 -50 31 -94 28 -97 -11 -11 -163 -7 -163 5 0 10 45 140 70 204 l12 30 10
-25 c5 -14 25 -66 43 -117z"/>
<path d="M1530 605 l0 -235 140 0 c133 0 140 1 140 20 0 19 -7 20 -120 20
l-120 0 0 215 c0 208 -1 215 -20 215 -19 0 -20 -7 -20 -235z"/>
<path d="M2000 605 l0 -235 145 0 c138 0 145 1 145 20 0 19 -7 20 -125 20
l-125 0 0 90 0 90 105 0 c98 0 105 1 105 20 0 19 -7 20 -105 20 l-105 0 0 85
0 85 125 0 c118 0 125 1 125 20 0 19 -7 20 -145 20 l-145 0 0 -235z"/>
<path d="M2510 605 c0 -228 1 -235 20 -235 19 0 20 7 20 100 l0 100 69 0 70 0
53 -100 c43 -81 57 -100 76 -100 12 0 22 2 22 5 0 3 -23 46 -51 96 -27 50 -49
92 -47 93 2 1 16 6 33 12 41 13 55 47 55 137 0 69 -3 81 -25 102 -23 24 -29
25 -160 25 l-135 0 0 -235z m270 176 c5 -11 10 -45 10 -76 0 -93 -3 -95 -130
-95 l-110 0 0 95 0 95 110 0 c98 0 110 -2 120 -19z"/>
<path d="M3060 606 c0 -229 1 -236 20 -236 19 0 20 7 20 202 0 137 3 199 10
192 6 -6 63 -95 128 -200 88 -139 124 -190 140 -192 l22 -3 0 235 c0 228 -1
236 -20 236 -19 0 -20 -8 -22 -197 l-3 -198 -121 195 c-103 167 -124 195 -147
198 l-27 3 0 -235z"/>
<path d="M3652 817 c-21 -22 -22 -32 -22 -209 0 -237 -4 -231 138 -236 117 -5
169 8 183 45 5 13 9 103 9 199 0 172 0 175 -25 199 -23 24 -30 25 -143 25
-111 0 -120 -1 -140 -23z m256 -29 c8 -8 12 -63 12 -179 0 -206 4 -199 -121
-199 -136 0 -129 -10 -129 190 0 92 3 175 6 184 5 13 25 16 113 16 70 0 111
-4 119 -12z"/>
</g>
</svg>
